<?xml version="1.0" standalone="no"?>
<!DOCTYPE svg PUBLIC "-//W3C//DTD SVG 20010904//EN"
 "http://www.w3.org/TR/2001/REC-SVG-20010904/DTD/svg10.dtd">
<svg version="1.0" xmlns="http://www.w3.org/2000/svg"
 width="608.000000pt" height="608.000000pt" viewBox="0 0 608.000000 608.000000"
 preserveAspectRatio="xMidYMid meet">
<metadata>
Created by potrace 1.16, written by Peter Selinger 2001-2019
</metadata>
<g transform="translate(0.000000,608.000000) scale(0.100000,-0.100000)"
fill="#000000" stroke="none">
<path d="M2970 4664 c-20 -9 -130 -109 -262 -242 l-228 -226 0 141 0 142 -27
21 c-26 20 -36 21 -216 18 -185 -3 -189 -4 -208 -27 -18 -22 -19 -44 -19 -395
l0 -371 -186 -185 c-102 -102 -195 -203 -206 -224 -25 -50 -21 -133 9 -174 47
-64 122 -91 195 -72 38 10 108 76 631 598 l587 587 588 -587 c504 -504 593
-588 629 -598 101 -30 209 40 220 143 11 95 30 72 -671 775 -435 436 -664 659
-692 672 -48 24 -96 25 -144 4z"/>
<path d="M2492 3587 l-542 -542 0 -87 0 -88 84 55 c187 122 428 221 641 264
472 95 967 0 1371 -264 l85 -55 -3 87 -3 88 -545 542 -545 543 -543 -543z"/>
<path d="M2950 3144 c-426 -34 -757 -169 -1068 -436 l-83 -71 127 -128 127
-128 66 58 c187 165 431 282 684 328 123 22 351 22 474 0 253 -46 497 -163
684 -328 l66 -58 127 128 127 127 -63 56 c-321 283 -693 433 -1118 451 -58 2
-125 3 -150 1z"/>
<path d="M2886 2490 c-202 -32 -384 -116 -547 -252 l-61 -51 123 -123 c68 -68
127 -124 131 -124 5 0 34 21 66 47 115 93 286 153 442 153 156 0 327 -60 442
-153 32 -26 61 -47 66 -47 4 0 63 56 131 124 l123 123 -61 51 c-135 112 -278
187 -438 228 -110 28 -314 40 -417 24z"/>
<path d="M2960 1851 c-75 -24 -157 -88 -187 -145 l-15 -29 138 -138 139 -139
142 142 c139 139 141 142 128 167 -20 38 -84 96 -135 122 -48 24 -164 35 -210
20z"/>
</g>
</svg>
